<svg width="162" height="30" fill="none" xmlns="http://www.w3.org/2000/svg"><path d="M.114.522h5.21v12.1h12.694V.522h5.209V29.5h-5.21V17.4H5.324v12.1H.114V.522zm34.798 0h19.277v4.779H40.121v7.321h13.104V17.4H40.121v7.178h14.068V29.5H34.912V.522zm29.753 0h5.209v24.056H82.26V29.5H64.665V.522zm26.02 0h5.209V29.5h-5.209V.522zm28.809 29.388c-3.062 0-5.646-.67-7.752-2.01a12.613 12.613 0 01-4.696-5.414c-1.025-2.256-1.538-4.75-1.538-7.485 0-2.734.513-5.23 1.538-7.485a12.483 12.483 0 014.696-5.394c2.106-1.353 4.69-2.03 7.752-2.03 3.063 0 5.64.677 7.732 2.03 2.105 1.34 3.671 3.138 4.696 5.394 1.039 2.255 1.559 4.75 1.559 7.485 0 2.734-.52 5.23-1.559 7.485-1.025 2.256-2.591 4.06-4.696 5.414-2.092 1.34-4.669 2.01-7.732 2.01zm0-4.614c1.983 0 3.603-.458 4.861-1.374 1.271-.93 2.194-2.167 2.768-3.712.574-1.545.862-3.281.862-5.209 0-1.928-.288-3.657-.862-5.188-.574-1.545-1.497-2.776-2.768-3.692-1.258-.93-2.878-1.394-4.861-1.394-1.982 0-3.609.464-4.881 1.394-1.257.916-2.173 2.147-2.748 3.691-.574 1.532-.861 3.261-.861 5.189s.287 3.664.861 5.209c.575 1.545 1.491 2.782 2.748 3.712 1.272.916 2.899 1.374 4.881 1.374zm31.804 4.532c-1.764 0-3.439-.321-5.025-.964a10.38 10.38 0 01-3.999-2.87c-1.08-1.286-1.77-2.845-2.071-4.677l5.168-1.312c.178 1.723.814 3.021 1.907 3.896 1.108.875 2.475 1.313 4.102 1.313.998 0 1.859-.157 2.584-.472.724-.328 1.271-.772 1.64-1.333.37-.56.554-1.19.554-1.886 0-.834-.26-1.546-.779-2.133a6.036 6.036 0 00-1.907-1.456c-.766-.383-1.819-.841-3.159-1.374-1.75-.698-3.165-1.34-4.245-1.928-1.08-.602-2.009-1.436-2.789-2.502-.765-1.067-1.148-2.413-1.148-4.04 0-1.654.403-3.083 1.21-4.286.82-1.217 1.914-2.14 3.281-2.769 1.381-.629 2.899-.943 4.553-.943 1.859 0 3.554.424 5.086 1.271 1.531.834 2.775 2.106 3.732 3.815l-4.327 2.645c-.506-.984-1.169-1.743-1.989-2.276a4.748 4.748 0 00-2.687-.82c-.683 0-1.305.13-1.866.39a3.233 3.233 0 00-1.312 1.107 2.783 2.783 0 00-.472 1.6c0 .738.239 1.366.718 1.886.478.52 1.08.957 1.804 1.313.739.355 1.743.779 3.015 1.27 1.805.698 3.268 1.355 4.389 1.97 1.121.615 2.085 1.476 2.891 2.584.807 1.107 1.21 2.508 1.21 4.204 0 1.777-.451 3.329-1.353 4.655-.889 1.326-2.099 2.345-3.63 3.056-1.531.71-3.227 1.066-5.086 1.066z" fill="#43C9D5"/></svg>