<svg width="139" height="99" fill="none" xmlns="http://www.w3.org/2000/svg"><g clip-path="url(#clip0)"><path d="M66.56 15.48v43.14H30.763l35.795-43.14zm0-15.48a17.85 17.85 0 01-5.243 12.633 17.914 17.914 0 01-12.656 5.233 17.911 17.911 0 01-12.655-5.233A17.85 17.85 0 0130.764 0h35.795zm5.896 58.624a17.85 17.85 0 015.242-12.633 17.914 17.914 0 0112.656-5.233c4.747 0 9.299 1.883 12.655 5.233a17.848 17.848 0 015.243 12.633H72.456zm0-15.48V0h35.803L72.456 43.14v.003zm20.02 52.39a6.984 6.984 0 004.958-1.912l2.458 2.649c-1.623 1.666-3.875 2.905-7.375 2.905-6 0-9.879-3.975-9.879-9.35a9.16 9.16 0 012.677-6.654 9.192 9.192 0 016.655-2.7c5.958 0 9.335 4.527 9.037 10.803H86.923c.498 2.607 2.336 4.27 5.54 4.27l.012-.012zm4.276-7.252c-.382-2.435-1.838-4.228-4.748-4.228-2.707 0-4.595 1.53-5.081 4.228h9.833-.004zM0 95.331l10.837-10.994H.257V80.89h15.607v3.517L5.028 95.396h10.99v3.451H0v-3.516zm28.183.198a6.984 6.984 0 004.959-1.91l2.458 2.648c-1.623 1.666-3.875 2.905-7.375 2.905-6 0-9.88-3.975-9.88-9.35a9.161 9.161 0 012.677-6.654 9.191 9.191 0 016.655-2.699c5.959 0 9.336 4.526 9.037 10.802H22.638c.498 2.607 2.336 4.27 5.541 4.27l.004-.012zm4.285-7.25c-.383-2.436-1.838-4.228-4.748-4.228-2.708 0-4.595 1.529-5.082 4.227h9.834-.004zm27.658 1.54c0-5.734 4.3-9.342 9.037-9.342a7.801 7.801 0 016 2.694V72.576h3.83v26.221h-3.83v-2.473a7.695 7.695 0 01-6.034 2.837c-4.596 0-9-3.632-9-9.339l-.003-.003zm15.252-.035a5.696 5.696 0 00-1.037-3.126 5.711 5.711 0 00-5.883-2.295 5.717 5.717 0 00-2.885 1.597 5.7 5.7 0 00-1.17 6.196 5.72 5.72 0 005.265 3.484c3.294 0 5.706-2.622 5.706-5.856h.004zm28.133 5.199l3.469-1.797a5.146 5.146 0 004.626 2.622c2.167 0 3.293-1.108 3.293-2.37 0-1.437-2.095-1.758-4.373-2.228-3.063-.65-6.253-1.655-6.253-5.351 0-2.84 2.707-5.466 6.969-5.428 3.358 0 5.859 1.33 7.276 3.478l-3.217 1.758a4.663 4.663 0 00-4.047-2.048c-2.06 0-3.11 1.005-3.11 2.156 0 1.291 1.662 1.65 4.266 2.228 2.964.65 6.318 1.617 6.318 5.351 0 2.477-2.167 5.818-7.298 5.784-3.753 0-6.395-1.51-7.915-4.167l-.004.012zm25.621-4.167l-3.036 3.307v4.663h-3.83V72.564h3.83v17.174l8.129-8.906h4.664l-7.046 7.683 7.23 10.275h-4.335l-5.602-7.974h-.004zM48.554 80.473c-4.556 0-8.367 2.943-8.367 7.836V98.8h3.906V88.794c0-2.943 1.697-4.709 4.595-4.709 2.899 0 4.339 1.758 4.339 4.71V98.8h3.883V88.31c0-4.885-3.83-7.836-8.367-7.836" fill="#03363D"/></g><defs><clipPath id="clip0"><path fill="#fff" d="M0 0h139v99H0z"/></clipPath></defs></svg>